<svg width="93" height="115" viewBox="0 0 93 115" fill="none" xmlns="http://www.w3.org/2000/svg">
<g clip-path="url(#clip0_355_129)">
<path d="M17.8356 0H75.1644C85.0148 0 93 8.00913 93 17.8889V97.1111C93 106.991 85.0148 115 75.1644 115H17.8356C7.98528 115 0 106.991 0 97.1111V17.8889C0 8.00913 7.98528 0 17.8356 0Z" fill="#869DAF"/>
<path d="M17.8356 0H75.1644C85.0148 0 93 8.00913 93 17.8889V92C93 101.88 85.0148 109.889 75.1644 109.889H17.8356C7.98528 109.889 0 101.88 0 92V17.8889C0 8.00913 7.98528 0 17.8356 0Z" fill="#A9B8CA"/>
<path d="M52.0592 67.3234L41.7128 67.2983C40.8663 67.2964 40.1782 67.9806 40.1762 68.8271L40.1687 71.8929C40.1667 72.7394 40.8515 73.4272 41.6979 73.4296L52.0443 73.4546C52.8908 73.4566 53.5786 72.7718 53.581 71.9254L53.5881 68.8595C53.5905 68.0131 52.9057 67.3254 52.0592 67.3234Z" fill="#92A7BA"/>
<path d="M17.6824 21.2559L76.3117 21.3978C78.0047 21.4018 79.3742 22.7778 79.3702 24.4707L79.2624 68.9217C79.2583 70.6151 77.8824 71.9841 76.1894 71.9801L17.56 71.8382C15.8669 71.8342 14.4977 70.4583 14.5018 68.7653L14.6094 24.3139C14.6135 22.6209 15.9893 21.2519 17.6824 21.2559Z" fill="#92A7BA"/>
<path d="M50.9177 63.8715L42.8707 63.852C42.0242 63.85 41.336 64.5346 41.334 65.3811L41.3297 67.2974C41.3277 68.1438 42.012 68.8315 42.8585 68.8335L50.9059 68.8532C51.7524 68.8552 52.44 68.1708 52.4422 67.3239L52.4468 65.4082C52.4488 64.5617 51.7646 63.8736 50.9177 63.8715Z" fill="#C3D1DE"/>
<path d="M18.7458 56.8963L75.4592 57.0334L75.4389 65.4641C75.4369 66.3106 74.7488 66.9948 73.9023 66.9929L47.0791 66.9282L38.2642 66.907L20.2545 66.8632C19.408 66.8611 18.7234 66.1734 18.7255 65.3265L18.7458 56.8963Z" fill="#C3D1DE"/>
<path d="M47.0788 66.928C47.0858 63.9653 44.6899 61.5574 41.7268 61.5503L18.7349 61.4946L18.7177 68.5839L18.8238 24.7077C18.8259 23.8613 19.5138 23.1765 20.3604 23.1785L41.8195 23.2306C44.7824 23.2376 47.1784 25.6451 47.1713 28.6082C47.1784 25.6451 49.5863 23.2492 52.549 23.2562L74.0082 23.3082C74.8547 23.3102 75.5394 23.9985 75.5374 24.8449L75.414 75.8105L75.4482 61.6317L52.4564 61.5764C49.4933 61.5693 47.0858 63.9653 47.0788 66.928Z" fill="#D2DCE5"/>
<path d="M42.1931 27.0634L23.0332 27.0167C22.3982 27.0154 21.8823 27.5288 21.8808 28.1637L21.878 29.3134C21.8765 29.9482 22.3899 30.464 23.0248 30.4658L42.1847 30.512C42.8197 30.5133 43.3357 29.9999 43.3372 29.365L43.3399 28.2157C43.3415 27.5804 42.828 27.0647 42.1931 27.0634Z" fill="#C3D1DE"/>
<path d="M42.1552 42.7743L22.9953 42.7281C22.3603 42.7268 21.8444 43.2402 21.8429 43.8751L21.8402 45.0244C21.8385 45.6596 22.352 46.1754 22.987 46.1767L42.1466 46.2234C42.782 46.2248 43.2978 45.7113 43.2991 45.0764L43.3022 43.9268C43.3035 43.2918 42.79 42.776 42.1552 42.7743Z" fill="#C3D1DE"/>
<path d="M37.9585 35.1004L23.0138 35.0642C22.3789 35.0625 21.863 35.576 21.8615 36.2108L21.8586 37.3605C21.8571 37.9954 22.3705 38.5116 23.0055 38.5129L37.9502 38.549C38.5851 38.5508 39.101 38.0373 39.1025 37.4025L39.1053 36.2528C39.1069 35.6179 38.5935 35.1017 37.9585 35.1004Z" fill="#C3D1DE"/>
<path d="M37.9214 50.4282L22.9767 50.3921C22.3418 50.3904 21.8259 50.9038 21.8244 51.5387L21.8215 52.6884C21.82 53.3232 22.3335 53.839 22.9684 53.8408L37.913 53.8769C38.5482 53.8787 39.064 53.3652 39.0654 52.7299L39.0684 51.5807C39.0697 50.9458 38.5563 50.4295 37.9214 50.4282Z" fill="#C3D1DE"/>
<path d="M28.0324 19.7479L36.846 19.7691C37.4808 19.7709 37.9943 20.2867 37.9928 20.9215L37.926 48.4874C37.9245 49.1223 37.4086 49.6357 36.7737 49.634C36.5653 49.6337 36.361 49.5765 36.1826 49.469L32.7936 47.4244C32.4193 47.1983 31.9491 47.2047 31.5806 47.4401L28.5823 49.3566C28.0472 49.6989 27.3364 49.5421 26.9944 49.0075C26.8758 48.8214 26.8129 48.6059 26.8135 48.3855L26.88 20.8949C26.8815 20.26 27.3974 19.7466 28.0324 19.7479Z" fill="#849EB5"/>
<path d="M71.6997 27.1349L52.5399 27.0882C51.905 27.0869 51.3887 27.6003 51.3875 28.2352L51.3847 29.3849C51.383 30.0197 51.8965 30.5355 52.5313 30.5372L71.6912 30.5835C72.326 30.5852 72.8423 30.0718 72.8437 29.4365L72.8467 28.2873C72.848 27.6524 72.3346 27.1361 71.6997 27.1349Z" fill="#C3D1DE"/>
<path d="M71.6619 42.8455L52.5016 42.7991C51.8666 42.7978 51.3508 43.3113 51.3491 43.9461L51.3464 45.0958C51.3451 45.7308 51.8586 46.2466 52.4934 46.2483L71.6533 46.2945C72.2883 46.2958 72.8041 45.7823 72.8058 45.1475L72.8085 43.9978C72.8102 43.363 72.2967 42.8472 71.6619 42.8455Z" fill="#C3D1DE"/>
<path d="M67.4649 35.1715L52.5201 35.1353C51.8853 35.1336 51.3695 35.6471 51.3678 36.2819L51.3651 37.4317C51.3634 38.0664 51.8767 38.5827 52.5121 38.5841L67.4569 38.6202C68.0916 38.6219 68.6075 38.1085 68.6092 37.4737L68.6119 36.3239C68.6132 35.689 68.0997 35.1732 67.4649 35.1715Z" fill="#C3D1DE"/>
<path d="M67.4277 50.4996L52.483 50.4635C51.8482 50.4618 51.3324 50.9753 51.3306 51.6105L51.328 52.7598C51.3267 53.3947 51.8401 53.9109 52.475 53.9122L67.4197 53.9484C68.0545 53.9501 68.5703 53.4366 68.5721 52.8018L68.5748 51.652C68.5765 51.0172 68.063 50.5015 67.4277 50.4996Z" fill="#C3D1DE"/>
</g>
<path d="M26.6321 93.0001V85.7274H28.1697V91.7323H31.2876V93.0001H26.6321Z" fill="#676767"/>
<path d="M32.3059 93.0001V85.7274H37.2065V86.9951H33.8436V88.7281H36.9543V89.9958H33.8436V91.7323H37.2207V93.0001H32.3059Z" fill="#676767"/>
<path d="M39.7429 85.7274L41.5007 91.2529H41.5682L43.3295 85.7274H45.0341L42.527 93.0001H40.5454L38.0348 85.7274H39.7429Z" fill="#676767"/>
<path d="M45.9094 93.0001V85.7274H50.81V86.9951H47.4471V88.7281H50.5579V89.9958H47.4471V91.7323H50.8242V93.0001H45.9094Z" fill="#676767"/>
<path d="M52.0325 93.0001V85.7274H53.5701V91.7323H56.688V93.0001H52.0325Z" fill="#676767"/>
<path d="M59.9781 93.0001V91.8921L62.5669 89.4951C62.7871 89.282 62.9717 89.0903 63.1209 88.9198C63.2724 88.7494 63.3872 88.5825 63.4654 88.4191C63.5435 88.2534 63.5825 88.0747 63.5825 87.8829C63.5825 87.6698 63.534 87.4864 63.4369 87.3325C63.3399 87.1762 63.2073 87.0567 63.0392 86.9738C62.8711 86.8886 62.6806 86.846 62.4675 86.846C62.2449 86.846 62.0508 86.891 61.8851 86.9809C61.7194 87.0709 61.5915 87.1999 61.5016 87.368C61.4116 87.5361 61.3666 87.7361 61.3666 87.9681H59.9071C59.9071 87.4923 60.0148 87.0792 60.2303 86.7288C60.4457 86.3784 60.7475 86.1073 61.1358 85.9156C61.5241 85.7238 61.9715 85.6279 62.4781 85.6279C62.999 85.6279 63.4523 85.7203 63.8382 85.9049C64.2265 86.0872 64.5283 86.3405 64.7438 86.6649C64.9592 86.9892 65.0669 87.3609 65.0669 87.7799C65.0669 88.0545 65.0125 88.3256 64.9036 88.5931C64.797 88.8606 64.6065 89.1578 64.3318 89.4845C64.0572 89.8088 63.6701 90.1982 63.1706 90.6528L62.1088 91.6933V91.743H65.1628V93.0001H59.9781Z" fill="#676767"/>
<defs>
<clipPath id="clip0_355_129">
<rect width="93" height="115" fill="white"/>
</clipPath>
</defs>
</svg>
