<svg width="96" height="118" viewBox="0 0 96 118" fill="none" xmlns="http://www.w3.org/2000/svg">
<g clip-path="url(#clip0_310_209)">
<path d="M18.411 0H77.5891C87.7572 0 96 8.21806 96 18.3556V99.6444C96 109.782 87.7572 118 77.5891 118H18.411C8.24287 118 0 109.782 0 99.6444V18.3556C0 8.21806 8.24287 0 18.411 0Z" fill="#FFAD34"/>
<path d="M18.411 0H77.5891C87.7572 0 96 8.21806 96 18.3556V94.4C96 104.537 87.7572 112.756 77.5891 112.756H18.411C8.24287 112.756 0 104.537 0 94.4V18.3556C0 8.21806 8.24287 0 18.411 0Z" fill="#FEC339"/>
<path d="M55.0622 -10.4438C65.115 -9.58308 73.1833 -5.64409 81.4999 0.0683592L27.0264 50.0394C21.6495 54.8797 13.3694 54.4424 8.53013 49.0656L8.52716 49.0623C3.68802 43.6824 4.12556 35.3982 9.50455 30.5569L55.0622 -10.4438Z" fill="#FED53F"/>
<path d="M15 112.568C5.44927 111.253 2.49998 104.568 0.499983 99.0685L95.5 15.0685C100.332 23.4126 96.269 37.7659 96.5704 47.4034L25.5 112.568L15 112.568Z" fill="#FED53F"/>
<path fill-rule="evenodd" clip-rule="evenodd" d="M77.9998 52.3642C77.9998 67.6271 65.7189 79.9999 50.5704 79.9999C35.421 79.9999 23.1401 67.6271 23.1401 52.3642C23.1401 37.1013 35.421 24.7285 50.5704 24.7285C65.7198 24.7285 77.9998 37.1022 77.9998 52.3642Z" fill="#FF8E30"/>
<path d="M73.3596 52.3642C73.3596 67.3545 61.2991 79.4999 46.4294 79.4999C31.5597 79.4999 19.5 67.3545 19.5 52.3642C19.5 37.3739 31.5605 25.2285 46.4294 25.2285C61.2991 25.2285 73.3596 37.3748 73.3596 52.3642Z" fill="#FFAB37" stroke="#FFAB37"/>
<path fill-rule="evenodd" clip-rule="evenodd" d="M46.4294 72.7C35.2942 72.7 26.2456 63.5844 26.2456 52.3643C26.2456 41.145 35.2942 32.0286 46.4294 32.0286C57.5655 32.0286 66.614 41.145 66.614 52.3651C66.614 63.5844 57.5655 72.7 46.4294 72.7Z" fill="#FFBC3A"/>
<path d="M51.9301 60.7278H39.8946C39.4702 60.7278 39.1667 60.3872 39.1667 60.1109V59.2179C39.1667 58.9411 39.4707 58.6001 39.8946 58.6001H51.9301C52.3545 58.6001 52.658 58.9407 52.658 59.2171V60.1117C52.658 60.387 52.3548 60.7278 51.9301 60.7278Z" fill="#FFAB37" stroke="#FFAB37"/>
<path d="M52.1228 38.2856L46.389 52.8856L40.7368 44.2548" stroke="#FF8E30" stroke-width="4.504" stroke-linecap="round" stroke-linejoin="round"/>
<path d="M47.425 7V14.7474M62.4736 11.3203L57.0933 16.3857M32.4561 11.3203L37.8354 16.3857" stroke="#FEAB35" stroke-width="3.847" stroke-linecap="round"/>
</g>
<path d="M28.6321 98.0684V90.7957H30.1697V96.8007H33.2876V98.0684H28.6321Z" fill="#D7792E"/>
<path d="M34.3059 98.0684V90.7957H39.2065V92.0635H35.8436V93.7964H38.9543V95.0642H35.8436V96.8007H39.2207V98.0684H34.3059Z" fill="#D7792E"/>
<path d="M41.7429 90.7957L43.5007 96.3213H43.5682L45.3295 90.7957H47.0341L44.527 98.0684H42.5454L40.0348 90.7957H41.7429Z" fill="#D7792E"/>
<path d="M47.9094 98.0684V90.7957H52.81V92.0635H49.4471V93.7964H52.5579V95.0642H49.4471V96.8007H52.8242V98.0684H47.9094Z" fill="#D7792E"/>
<path d="M54.0325 98.0684V90.7957H55.5701V96.8007H58.688V98.0684H54.0325Z" fill="#D7792E"/>
<path d="M64.6663 98.1679C64.136 98.1679 63.6637 98.0767 63.2494 97.8944C62.8375 97.7098 62.512 97.4565 62.2729 97.1345C62.0361 96.8102 61.9142 96.4361 61.9071 96.0123H63.4554C63.4649 96.1899 63.5229 96.3461 63.6294 96.4811C63.7383 96.6137 63.8827 96.7166 64.0627 96.79C64.2426 96.8634 64.445 96.9001 64.6699 96.9001C64.9043 96.9001 65.1114 96.8587 65.2913 96.7758C65.4713 96.693 65.6121 96.5782 65.7139 96.4314C65.8157 96.2846 65.8666 96.1153 65.8666 95.9236C65.8666 95.7294 65.8122 95.5578 65.7033 95.4086C65.5967 95.2571 65.4429 95.1388 65.2416 95.0535C65.0428 94.9683 64.806 94.9257 64.5314 94.9257H63.8531V93.7964H64.5314C64.7634 93.7964 64.9682 93.7562 65.1458 93.6757C65.3257 93.5952 65.4654 93.4839 65.5648 93.3419C65.6642 93.1975 65.7139 93.0294 65.7139 92.8376C65.7139 92.6553 65.6701 92.4955 65.5825 92.3582C65.4973 92.2185 65.3766 92.1096 65.2203 92.0315C65.0664 91.9534 64.8865 91.9143 64.6806 91.9143C64.4722 91.9143 64.2816 91.9522 64.1088 92.028C63.936 92.1014 63.7975 92.2067 63.6933 92.344C63.5892 92.4813 63.5335 92.6423 63.5264 92.827H62.0527C62.0598 92.4079 62.1794 92.0386 62.4114 91.719C62.6434 91.3994 62.9559 91.1497 63.3489 90.9697C63.7442 90.7874 64.1905 90.6963 64.6877 90.6963C65.1896 90.6963 65.6287 90.7874 66.0051 90.9697C66.3815 91.152 66.6739 91.3982 66.8823 91.7084C67.093 92.0161 67.1971 92.3618 67.1948 92.7453C67.1971 93.1525 67.0705 93.4922 66.8148 93.7645C66.5615 94.0367 66.2312 94.2095 65.824 94.2829V94.3398C66.3591 94.4084 66.7663 94.5943 67.0456 94.8973C67.3273 95.1979 67.467 95.5744 67.4646 96.0265C67.467 96.4408 67.3475 96.809 67.106 97.1309C66.8669 97.4529 66.5366 97.7062 66.1152 97.8909C65.6938 98.0756 65.2109 98.1679 64.6663 98.1679Z" fill="#D7792E"/>
<defs>
<clipPath id="clip0_310_209">
<rect width="96" height="118" fill="white"/>
</clipPath>
</defs>
</svg>
