<svg width="96" height="118" viewBox="0 0 96 118" fill="none" xmlns="http://www.w3.org/2000/svg">
<g clip-path="url(#clip0_310_226)">
<path d="M18.411 0H77.5891C87.7572 0 96 8.21806 96 18.3556V99.6444C96 109.782 87.7572 118 77.5891 118H18.411C8.24287 118 0 109.782 0 99.6444V18.3556C0 8.21806 8.24287 0 18.411 0Z" fill="#FFAD34"/>
<path d="M18.411 0H77.5891C87.7572 0 96 8.21806 96 18.3556V94.4C96 104.537 87.7572 112.756 77.5891 112.756H18.411C8.24287 112.756 0 104.537 0 94.4V18.3556C0 8.21806 8.24287 0 18.411 0Z" fill="#FEC339"/>
<path d="M55.0622 -10.4438C65.115 -9.58308 73.1833 -5.64409 81.4999 0.0683592L27.0264 50.0394C21.6495 54.8797 13.3694 54.4424 8.53013 49.0656L8.52716 49.0623C3.68802 43.6824 4.12556 35.3982 9.50455 30.5569L55.0622 -10.4438Z" fill="#FED53F"/>
<path d="M15 112.568C5.44927 111.253 2.49998 104.568 0.499983 99.0685L95.5 15.0685C100.332 23.4126 96.269 37.7659 96.5704 47.4034L25.5 112.568L15 112.568Z" fill="#FED53F"/>
<path d="M24.7664 42.3679L14 23.4535C38.4426 21.9986 49.791 25.7815 56.7746 40.331C63.3246 53.9772 56.7727 65.7685 53.3561 71.9171L53.2828 72.0491H32.623L46.2992 42.3679H24.7664Z" fill="#FFAD37"/>
<path d="M53.8648 23.4535H74.8156L85 41.786C81.3142 42.174 72.4877 42.4262 66.668 40.331C60.8484 38.2358 55.7077 28.2064 53.8648 23.4535Z" fill="#FFAD37"/>
<path d="M33.787 69.7919C34.3689 68.6805 33.787 69.7919 35.0611 67.3936H52.5501C53.8966 67.3936 54.7378 67.3949 54.7378 68.6805C54.1558 69.7919 53.9951 70.3129 52.9919 72.0146L32.623 72.0493C32.623 72.0146 33.205 70.9032 33.787 69.7919Z" fill="#FF8E30"/>
<path d="M55.8813 67.1715L49.5416 67.3162L46.5888 73.2317L51.2572 75.7485L55.8813 67.1715Z" fill="#FF8E30"/>
<path d="M52.7349 67.4133C55.5853 67.6422 56.0782 65.812 56.7048 65.2785L55.4595 68.096L53.7238 70.788C52.2065 69.5678 49.8845 67.1844 52.7349 67.4133Z" fill="#FF8E30"/>
<path d="M46.576 69.6159C49.3491 70.3137 49.9975 71.4731 49.9975 72.3049L53.6284 69.1434L47.7998 67.3936C46.1897 68.4885 44.0803 68.9879 46.576 69.6159Z" fill="#FF8E30"/>
<path d="M46.6589 70.4423C43.8858 71.1401 43.2374 72.2996 43.2374 73.1313L39.6064 69.9698L45.4351 67.3936C47.0451 68.4885 49.1546 69.8144 46.6589 70.4423Z" fill="#FF8E30"/>
<path d="M46.0083 67.3934C41.4274 66.5428 37.4212 62.7935 37.7385 61.4676L32.623 72.0492L39.6323 71.5493C42.5453 70.2317 50.5892 68.244 46.0083 67.3934Z" fill="#FF8E30"/>
<path fill-rule="evenodd" clip-rule="evenodd" d="M58.8489 28.2747C58.9432 26.6116 60.3678 25.3399 62.0308 25.4341C65.2744 25.618 67.0536 25.3552 69.6981 24.6167C71.3025 24.1687 72.9662 25.1061 73.4142 26.7105C73.8621 28.3148 72.9247 29.9786 71.3204 30.4267C68.0855 31.3301 65.6428 31.6809 61.6894 31.4568C60.0263 31.3625 58.7546 29.9378 58.8489 28.2747Z" fill="#FFBC3A"/>
<path d="M18.5865 45.1843C18.7426 44.6071 19.3371 44.2657 19.9142 44.4219L20.5465 44.5928C23.7851 45.4687 25.7005 48.8042 24.8247 52.0428L24.7496 52.3204C24.5935 52.8976 23.9991 53.2389 23.4219 53.0828L22.7896 52.9118C19.5511 52.036 17.6357 48.7005 18.5115 45.4619L18.5865 45.1843Z" fill="#FFAD37"/>
<path d="M75.1401 44.8684C74.9583 44.2988 74.3491 43.9845 73.7795 44.1663L73.1555 44.3655C69.9596 45.3861 68.196 48.8042 69.2164 52.0002L69.304 52.2741C69.4858 52.8437 70.0949 53.158 70.6645 52.9762L71.2885 52.7769C74.4845 51.7564 76.2481 48.3383 75.2276 45.1423L75.1401 44.8684Z" fill="#FF8E30"/>
<path d="M17.576 57.0783C17.3451 56.5268 17.6049 55.8924 18.1564 55.6615L18.7606 55.4085C21.8552 54.1127 25.4142 55.5709 26.7101 58.6655L26.8211 58.9307C27.0521 59.4822 26.7921 60.1166 26.2406 60.3475L25.6365 60.6005C22.5419 61.8964 18.9828 60.4381 17.6871 57.3436L17.576 57.0783Z" fill="#FFAD37"/>
<path d="M76.7681 57.0783C76.999 56.5268 76.7391 55.8924 76.1876 55.6615L75.5834 55.4085C72.4889 54.1127 68.9298 55.5709 67.634 58.6655L67.523 58.9307C67.2921 59.4822 67.5519 60.1166 68.1034 60.3475L68.7076 60.6005C71.8022 61.8964 75.3613 60.4381 76.657 57.3436L76.7681 57.0783Z" fill="#FF8E30"/>
<path d="M22.6325 68.095C22.0739 67.8818 21.7938 67.2562 22.007 66.6976L22.2406 66.0853C23.4366 62.9509 26.9472 61.3795 30.0817 62.5756L30.3501 62.6781C30.9088 62.8913 31.1888 63.5169 30.9756 64.0755L30.7421 64.6877C29.546 67.8222 26.0354 69.3936 22.901 68.1974L22.6325 68.095Z" fill="#FFAD37"/>
<path d="M71.3486 68.095C71.9072 67.8818 72.1873 67.2562 71.9742 66.6976L71.7406 66.0853C70.5446 62.9509 67.034 61.3795 63.8995 62.5756L63.631 62.6781C63.0724 62.8913 62.7923 63.5169 63.0055 64.0755L63.2391 64.6877C64.4351 67.8222 67.9457 69.3936 71.0802 68.1974L71.3486 68.095Z" fill="#FF8E30"/>
<path fill-rule="evenodd" clip-rule="evenodd" d="M23.9528 51.2948C24.4017 51.2816 24.7763 51.6348 24.7896 52.0837C24.8245 53.2695 25.1564 55.2717 26.0492 57.311C26.94 59.346 28.3645 61.3631 30.5494 62.6721C30.9348 62.9029 31.0599 63.4024 30.8291 63.7876C30.5984 64.1729 30.099 64.2982 29.7137 64.0673C27.1565 62.5354 25.5414 60.2066 24.5593 57.9633C23.5791 55.7243 23.2047 53.516 23.1639 52.1316C23.1507 51.6826 23.5039 51.308 23.9528 51.2948Z" fill="#FFAD37"/>
<path fill-rule="evenodd" clip-rule="evenodd" d="M70.1754 51.2948C69.7265 51.2816 69.3518 51.6348 69.3387 52.0837C69.3037 53.2695 68.9719 55.2717 68.079 57.311C67.1882 59.346 65.7637 61.3631 63.5788 62.6721C63.1934 62.9029 63.0683 63.4024 63.2991 63.7876C63.5298 64.1729 64.0292 64.2982 64.4145 64.0673C66.9717 62.5354 68.5868 60.2066 69.5689 57.9633C70.5491 55.7243 70.9235 53.516 70.9643 52.1316C70.9775 51.6826 70.6243 51.308 70.1754 51.2948Z" fill="#FF8E30"/>
<path d="M49.4057 59.4557V50.8085H49.3673L48.1594 51.6329C47.9102 51.8055 47.6418 51.8821 47.3542 51.8821C47.0474 51.8821 46.7791 51.7863 46.5681 51.5562C46.338 51.3453 46.2422 51.0768 46.2422 50.7509C46.2422 50.2907 46.453 49.9264 46.9132 49.6196L48.9647 48.2008C49.5399 47.8174 50.0768 47.6064 50.5944 47.6064C51.0546 47.6064 51.4189 47.7599 51.6873 48.0666C51.9556 48.3734 52.0899 48.7568 52.0899 49.2362V59.4557C52.0899 59.8966 51.9556 60.2418 51.7064 60.491C51.4572 60.7594 51.1313 60.8745 50.7478 60.8745C50.3452 60.8745 50.0193 60.7594 49.77 60.491C49.5208 60.2418 49.4057 59.8966 49.4057 59.4557Z" fill="#D0711F"/>
<path d="M26.8032 74.487C26.8032 73.1406 27.8947 72.0491 29.2412 72.0491H56.7606C58.1071 72.0491 59.1986 73.1406 59.1986 74.487C59.1986 75.8335 58.1071 76.9251 56.7606 76.9251H29.2412C27.8947 76.9251 26.8032 75.8335 26.8032 74.487Z" fill="#FFAD37"/>
<path d="M27.9954 73.5517C27.9954 72.7253 28.6652 72.0554 29.4917 72.0554H35.1154C35.9418 72.0554 36.6118 72.7253 36.6118 73.5517C36.6118 74.3781 35.9418 75.048 35.1154 75.048H29.4917C28.6652 75.048 27.9954 74.3781 27.9954 73.5517Z" fill="#FFBC3A"/>
<path d="M37.4272 73.5517C37.4272 72.7253 38.0972 72.0554 38.9236 72.0554H39.3363C40.1626 72.0554 40.8326 72.7253 40.8326 73.5517C40.8326 74.3781 40.1626 75.048 39.3363 75.048H38.9236C38.0972 75.048 37.4272 74.3781 37.4272 73.5517Z" fill="#FFBC3A"/>
</g>
<path d="M28.6321 98.0684V90.7957H30.1697V96.8007H33.2876V98.0684H28.6321Z" fill="#D7792E"/>
<path d="M34.3059 98.0684V90.7957H39.2065V92.0635H35.8436V93.7964H38.9543V95.0642H35.8436V96.8007H39.2207V98.0684H34.3059Z" fill="#D7792E"/>
<path d="M41.7429 90.7957L43.5007 96.3213H43.5682L45.3295 90.7957H47.0341L44.527 98.0684H42.5454L40.0348 90.7957H41.7429Z" fill="#D7792E"/>
<path d="M47.9094 98.0684V90.7957H52.81V92.0635H49.4471V93.7964H52.5579V95.0642H49.4471V96.8007H52.8242V98.0684H47.9094Z" fill="#D7792E"/>
<path d="M54.0325 98.0684V90.7957H55.5701V96.8007H58.688V98.0684H54.0325Z" fill="#D7792E"/>
<path d="M64.6663 98.1679C64.136 98.1679 63.6637 98.0767 63.2494 97.8944C62.8375 97.7098 62.512 97.4565 62.2729 97.1345C62.0361 96.8102 61.9142 96.4361 61.9071 96.0123H63.4554C63.4649 96.1899 63.5229 96.3461 63.6294 96.4811C63.7383 96.6137 63.8827 96.7166 64.0627 96.79C64.2426 96.8634 64.445 96.9001 64.6699 96.9001C64.9043 96.9001 65.1114 96.8587 65.2913 96.7758C65.4713 96.693 65.6121 96.5782 65.7139 96.4314C65.8157 96.2846 65.8666 96.1153 65.8666 95.9236C65.8666 95.7294 65.8122 95.5578 65.7033 95.4086C65.5967 95.2571 65.4429 95.1388 65.2416 95.0535C65.0428 94.9683 64.806 94.9257 64.5314 94.9257H63.8531V93.7964H64.5314C64.7634 93.7964 64.9682 93.7562 65.1458 93.6757C65.3257 93.5952 65.4654 93.4839 65.5648 93.3419C65.6642 93.1975 65.7139 93.0294 65.7139 92.8376C65.7139 92.6553 65.6701 92.4955 65.5825 92.3582C65.4973 92.2185 65.3766 92.1096 65.2203 92.0315C65.0664 91.9534 64.8865 91.9143 64.6806 91.9143C64.4722 91.9143 64.2816 91.9522 64.1088 92.028C63.936 92.1014 63.7975 92.2067 63.6933 92.344C63.5892 92.4813 63.5335 92.6423 63.5264 92.827H62.0527C62.0598 92.4079 62.1794 92.0386 62.4114 91.719C62.6434 91.3994 62.9559 91.1497 63.3489 90.9697C63.7442 90.7874 64.1905 90.6963 64.6877 90.6963C65.1896 90.6963 65.6287 90.7874 66.0051 90.9697C66.3815 91.152 66.6739 91.3982 66.8823 91.7084C67.093 92.0161 67.1971 92.3618 67.1948 92.7453C67.1971 93.1525 67.0705 93.4922 66.8148 93.7645C66.5615 94.0367 66.2312 94.2095 65.824 94.2829V94.3398C66.3591 94.4084 66.7663 94.5943 67.0456 94.8973C67.3273 95.1979 67.467 95.5744 67.4646 96.0265C67.467 96.4408 67.3475 96.809 67.106 97.1309C66.8669 97.4529 66.5366 97.7062 66.1152 97.8909C65.6938 98.0756 65.2109 98.1679 64.6663 98.1679Z" fill="#D7792E"/>
<defs>
<clipPath id="clip0_310_226">
<rect width="96" height="118" fill="white"/>
</clipPath>
</defs>
</svg>
