<svg width="93" height="115" viewBox="0 0 93 115" fill="none" xmlns="http://www.w3.org/2000/svg">
<g clip-path="url(#clip0_355_127)">
<path d="M17.8356 0H75.1644C85.0148 0 93 8.00913 93 17.8889V97.1111C93 106.991 85.0148 115 75.1644 115H17.8356C7.98528 115 0 106.991 0 97.1111V17.8889C0 8.00913 7.98528 0 17.8356 0Z" fill="#869DAF"/>
<path d="M17.8356 0H75.1644C85.0148 0 93 8.00913 93 17.8889V92C93 101.88 85.0148 109.889 75.1644 109.889H17.8356C7.98528 109.889 0 101.88 0 92V17.8889C0 8.00913 7.98528 0 17.8356 0Z" fill="#A9B8CA"/>
<path d="M21.7664 40.2492L11 21.2904C35.4426 19.8321 46.791 23.6238 53.7746 38.2075C60.3246 51.8857 53.7727 63.7047 50.3561 69.8677L50.2828 70H29.623L43.2992 40.2492H21.7664Z" fill="#C3D1DE"/>
<path d="M50.8648 21.2904H71.8156L82 39.6659C78.3142 40.0548 69.4877 40.3076 63.668 38.2075C57.8484 36.1074 52.7077 26.0544 50.8648 21.2904Z" fill="#C3D1DE"/>
<path d="M31.1579 67.5757C31.7368 66.3821 31.1579 67.5757 32.4255 65H49.8237C51.1632 65 52 65.0015 52 66.3821C51.4211 67.5757 51.2612 68.1352 50.2632 69.9627L30 70C30 69.9627 30.5789 68.7692 31.1579 67.5757Z" fill="#92A7BA"/>
<path d="M52.8813 65.1715L46.5416 65.3162L43.5888 71.2317L48.2572 73.7485L52.8813 65.1715Z" fill="#92A7BA"/>
<path d="M49.7349 65.4133C52.5853 65.6422 53.0782 63.812 53.7048 63.2785L52.4595 66.096L50.7238 68.788C49.2065 67.5678 46.8845 65.1844 49.7349 65.4133Z" fill="#92A7BA"/>
<path d="M43.2615 67.2624C46.3045 67.9728 47.0159 69.1532 47.0159 70L51 66.7814L44.6045 65C42.8377 66.1147 40.5231 66.6231 43.2615 67.2624Z" fill="#92A7BA"/>
<path d="M43.8787 68.1881C41.1738 68.9178 40.5415 70.1303 40.5415 71L37 67.694L42.685 65C44.2553 66.1449 46.3128 67.5315 43.8787 68.1881Z" fill="#92A7BA"/>
<path d="M43.0083 65.3934C38.4274 64.5428 34.4212 60.7935 34.7385 59.4676L29.623 70.0492L36.6323 69.5493C39.5453 68.2317 47.5892 66.244 43.0083 65.3934Z" fill="#92A7BA"/>
<path fill-rule="evenodd" clip-rule="evenodd" d="M55.8489 26.2747C55.9432 24.6116 57.3678 23.3399 59.0308 23.4341C62.2744 23.618 64.0536 23.3552 66.6981 22.6167C68.3025 22.1687 69.9662 23.1061 70.4142 24.7105C70.8621 26.3148 69.9247 27.9786 68.3204 28.4267C65.0855 29.3301 62.6428 29.6809 58.6894 29.4568C57.0263 29.3625 55.7546 27.9378 55.8489 26.2747Z" fill="#E0EAF3"/>
<path d="M15.5865 46.676C15.7426 46.0988 16.3371 45.7574 16.9142 45.9136L17.5465 46.0845C20.7851 46.9604 22.7005 50.2959 21.8247 53.5344L21.7496 53.8121C21.5935 54.3893 20.9991 54.7306 20.4219 54.5745L19.7896 54.4035C16.5511 53.5277 14.6357 50.1922 15.5115 46.9536L15.5865 46.676Z" fill="#E0EAF3"/>
<path d="M72.1401 46.3601C71.9583 45.7905 71.3491 45.4762 70.7795 45.658L70.1555 45.8572C66.9596 46.8778 65.196 50.2959 66.2164 53.4919L66.304 53.7658C66.4858 54.3354 67.0949 54.6497 67.6645 54.4679L68.2885 54.2686C71.4845 53.2481 73.2481 49.83 72.2276 46.634L72.1401 46.3601Z" fill="#92A7BA"/>
<path d="M14.576 58.57C14.3451 58.0185 14.6049 57.3841 15.1564 57.1532L15.7606 56.9002C18.8552 55.6044 22.4142 57.0626 23.7101 60.1572L23.8211 60.4224C24.0521 60.9739 23.7921 61.6083 23.2406 61.8392L22.6365 62.0922C19.5419 63.3881 15.9828 61.9298 14.6871 58.8353L14.576 58.57Z" fill="#E0EAF3"/>
<path d="M73.7681 58.57C73.999 58.0185 73.7391 57.3841 73.1876 57.1532L72.5834 56.9002C69.4889 55.6044 65.9298 57.0626 64.634 60.1572L64.523 60.4224C64.2921 60.9739 64.5519 61.6083 65.1034 61.8392L65.7076 62.0922C68.8022 63.3881 72.3613 61.9298 73.657 58.8353L73.7681 58.57Z" fill="#92A7BA"/>
<path fill-rule="evenodd" clip-rule="evenodd" d="M20.9528 52.7865C21.4017 52.7733 21.7763 53.1265 21.7896 53.5754C21.8245 54.7612 22.1564 56.7634 23.0492 58.8027C23.94 60.8377 23.2211 58.9918 23.8031 60.7377C23.8031 60.7377 24.0339 61.5164 23.8031 61.9016C23.5723 62.287 23.0245 62.1325 22.6392 61.9016C21.5593 59.455 22.5414 61.6983 21.5593 59.455C20.5791 57.216 20.2047 55.0077 20.1639 53.6233C20.1507 53.1743 20.5039 52.7997 20.9528 52.7865Z" fill="#E0EAF3"/>
<path fill-rule="evenodd" clip-rule="evenodd" d="M67.1751 52.7865C66.7262 52.7733 66.3516 53.1265 66.3384 53.5754C66.3035 54.7612 65.9716 56.7634 65.0788 58.8027C63.9589 60.7377 64.8107 59.455 63.9589 60.7377C63.3769 61.9016 64.5408 61.9016 64.5408 61.9016C66.2867 61.3197 65.3194 60.9686 65.7048 60.7377C66.2867 60.1557 65.5866 61.6983 66.5686 59.455C67.5488 57.216 67.9232 55.0077 67.964 53.6233C67.9773 53.1743 67.624 52.7997 67.1751 52.7865Z" fill="#92A7BA"/>
<path d="M46.2459 57.6098V49.1373H46.2065L44.9672 49.9451C44.7115 50.1142 44.436 50.1893 44.141 50.1893C43.8262 50.1893 43.5509 50.0954 43.3344 49.8699C43.0984 49.6633 43 49.4003 43 49.0809C43 48.6301 43.2163 48.2731 43.6885 47.9725L45.7935 46.5824C46.3836 46.2067 46.9345 46 47.4656 46C47.9377 46 48.3115 46.1503 48.587 46.4509C48.8623 46.7515 49 47.1271 49 47.5968V57.6098C49 58.0419 48.8623 58.3801 48.6066 58.6242C48.3509 58.8872 48.0165 59 47.6229 59C47.2099 59 46.8755 58.8872 46.6197 58.6242C46.364 58.3801 46.2459 58.0419 46.2459 57.6098Z" fill="#626366"/>
<path d="M23.8032 72.4873C23.8032 71.1409 24.8947 70.0493 26.2412 70.0493H53.7606C55.1071 70.0493 56.1986 71.1409 56.1986 72.4873C56.1986 73.8338 55.1071 74.9253 53.7606 74.9253H26.2412C24.8947 74.9253 23.8032 73.8338 23.8032 72.4873Z" fill="#C3D1DE"/>
<path d="M24.9954 71.552C24.9954 70.7255 25.6652 70.0557 26.4917 70.0557H32.1154C32.9418 70.0557 33.6118 70.7255 33.6118 71.552C33.6118 72.3783 32.9418 73.0483 32.1154 73.0483H26.4917C25.6652 73.0483 24.9954 72.3783 24.9954 71.552Z" fill="#E0EAF3"/>
<path d="M34.4272 71.552C34.4272 70.7255 35.0972 70.0557 35.9236 70.0557H36.3363C37.1626 70.0557 37.8326 70.7255 37.8326 71.552C37.8326 72.3783 37.1626 73.0483 36.3363 73.0483H35.9236C35.0972 73.0483 34.4272 72.3783 34.4272 71.552Z" fill="#E0EAF3"/>
</g>
<path d="M26.6321 93.0001V85.7274H28.1697V91.7323H31.2876V93.0001H26.6321Z" fill="#676767"/>
<path d="M32.3059 93.0001V85.7274H37.2065V86.9951H33.8436V88.7281H36.9543V89.9958H33.8436V91.7323H37.2207V93.0001H32.3059Z" fill="#676767"/>
<path d="M39.7429 85.7274L41.5007 91.2529H41.5682L43.3295 85.7274H45.0341L42.527 93.0001H40.5454L38.0348 85.7274H39.7429Z" fill="#676767"/>
<path d="M45.9094 93.0001V85.7274H50.81V86.9951H47.4471V88.7281H50.5579V89.9958H47.4471V91.7323H50.8242V93.0001H45.9094Z" fill="#676767"/>
<path d="M52.0325 93.0001V85.7274H53.5701V91.7323H56.688V93.0001H52.0325Z" fill="#676767"/>
<path d="M59.9781 93.0001V91.8921L62.5669 89.4951C62.7871 89.282 62.9717 89.0903 63.1209 88.9198C63.2724 88.7494 63.3872 88.5825 63.4654 88.4191C63.5435 88.2534 63.5825 88.0747 63.5825 87.8829C63.5825 87.6698 63.534 87.4864 63.4369 87.3325C63.3399 87.1762 63.2073 87.0567 63.0392 86.9738C62.8711 86.8886 62.6806 86.846 62.4675 86.846C62.2449 86.846 62.0508 86.891 61.8851 86.9809C61.7194 87.0709 61.5915 87.1999 61.5016 87.368C61.4116 87.5361 61.3666 87.7361 61.3666 87.9681H59.9071C59.9071 87.4923 60.0148 87.0792 60.2303 86.7288C60.4457 86.3784 60.7475 86.1073 61.1358 85.9156C61.5241 85.7238 61.9715 85.6279 62.4781 85.6279C62.999 85.6279 63.4523 85.7203 63.8382 85.9049C64.2265 86.0872 64.5283 86.3405 64.7438 86.6649C64.9592 86.9892 65.0669 87.3609 65.0669 87.7799C65.0669 88.0545 65.0125 88.3256 64.9036 88.5931C64.797 88.8606 64.6065 89.1578 64.3318 89.4845C64.0572 89.8088 63.6701 90.1982 63.1706 90.6528L62.1088 91.6933V91.743H65.1628V93.0001H59.9781Z" fill="#676767"/>
<defs>
<clipPath id="clip0_355_127">
<rect width="93" height="115" fill="white"/>
</clipPath>
</defs>
</svg>
