<svg width="93" height="115" viewBox="0 0 93 115" fill="none" xmlns="http://www.w3.org/2000/svg">
<g clip-path="url(#clip0_355_128)">
<path d="M17.8356 0H75.1644C85.0148 0 93 8.00913 93 17.8889V97.1111C93 106.991 85.0148 115 75.1644 115H17.8356C7.98528 115 0 106.991 0 97.1111V17.8889C0 8.00913 7.98528 0 17.8356 0Z" fill="#869DAF"/>
<path d="M17.8356 0H75.1644C85.0148 0 93 8.00913 93 17.8889V92C93 101.88 85.0148 109.889 75.1644 109.889H17.8356C7.98528 109.889 0 101.88 0 92V17.8889C0 8.00913 7.98528 0 17.8356 0Z" fill="#A9B8CA"/>
<path fill-rule="evenodd" clip-rule="evenodd" d="M72 71C72 68.7908 74.0146 67 76.5 67C78.9852 67 81 68.7908 81 71V77.8802C81 77.9463 80.9396 78 80.8653 78H72.1347C72.0604 78 72 77.9463 72 77.8802V71Z" fill="#92A7BA"/>
<path d="M43 40.5C43 39.6716 43.7017 39 44.5672 39H76.4329C77.2984 39 78 39.6716 78 40.5C78 41.3284 77.2984 42 76.4329 42H44.5672C43.7017 42 43 41.3284 43 40.5Z" fill="#92A7BA"/>
<path d="M23.2436 63C22.0045 63 21 62.1962 21 61.2048C21 50.5983 31.7451 42 45.0001 42C58.2548 42 69 50.5983 69 61.2048C69 62.1962 67.9956 63 66.7565 63C66.7565 63 52.0573 63 45.0001 63C37.553 63 23.2436 63 23.2436 63Z" fill="#C3D1DE"/>
<path d="M23 46.2221C23 45.5471 23.5205 45 24.1627 45H66.8372C67.4794 45 68 45.5471 68 46.2221V54.778C68 55.4528 67.4794 56 66.8372 56H24.1627C23.5205 56 23 55.4528 23 54.778V46.2221Z" fill="#92A7BA"/>
<path d="M40 41.5C40 39.567 41.3095 38 42.925 38H46.075C47.6904 38 49 39.567 49 41.5C49 43.433 47.6904 45 46.075 45H42.925C41.3095 45 40 43.433 40 41.5Z" fill="#92A7BA"/>
<path d="M76.5835 39C77.3658 39 78 39.8016 78 40.7903V63.2097C78 64.1985 77.3658 65 76.5835 65H76.4165C75.6342 65 75 64.1985 75 63.2097V40.7903C75 39.8016 75.6342 39 76.4165 39H76.5835Z" fill="#92A7BA"/>
<path d="M13 45C13 43.3433 14.1559 42 15.5817 42H73.4182C74.8442 42 76 43.3433 76 45C76 46.6567 74.8442 48 73.4182 48H15.5817C14.1559 48 13 46.6567 13 45Z" fill="#C3D1DE"/>
</g>
<path d="M26.6321 93.0001V85.7274H28.1697V91.7323H31.2876V93.0001H26.6321Z" fill="#676767"/>
<path d="M32.3059 93.0001V85.7274H37.2065V86.9951H33.8436V88.7281H36.9543V89.9958H33.8436V91.7323H37.2207V93.0001H32.3059Z" fill="#676767"/>
<path d="M39.7429 85.7274L41.5007 91.2529H41.5682L43.3295 85.7274H45.0341L42.527 93.0001H40.5454L38.0348 85.7274H39.7429Z" fill="#676767"/>
<path d="M45.9094 93.0001V85.7274H50.81V86.9951H47.4471V88.7281H50.5579V89.9958H47.4471V91.7323H50.8242V93.0001H45.9094Z" fill="#676767"/>
<path d="M52.0325 93.0001V85.7274H53.5701V91.7323H56.688V93.0001H52.0325Z" fill="#676767"/>
<path d="M59.9781 93.0001V91.8921L62.5669 89.4951C62.7871 89.282 62.9717 89.0903 63.1209 88.9198C63.2724 88.7494 63.3872 88.5825 63.4654 88.4191C63.5435 88.2534 63.5825 88.0747 63.5825 87.8829C63.5825 87.6698 63.534 87.4864 63.4369 87.3325C63.3399 87.1762 63.2073 87.0567 63.0392 86.9738C62.8711 86.8886 62.6806 86.846 62.4675 86.846C62.2449 86.846 62.0508 86.891 61.8851 86.9809C61.7194 87.0709 61.5915 87.1999 61.5016 87.368C61.4116 87.5361 61.3666 87.7361 61.3666 87.9681H59.9071C59.9071 87.4923 60.0148 87.0792 60.2303 86.7288C60.4457 86.3784 60.7475 86.1073 61.1358 85.9156C61.5241 85.7238 61.9715 85.6279 62.4781 85.6279C62.999 85.6279 63.4523 85.7203 63.8382 85.9049C64.2265 86.0872 64.5283 86.3405 64.7438 86.6649C64.9592 86.9892 65.0669 87.3609 65.0669 87.7799C65.0669 88.0545 65.0125 88.3256 64.9036 88.5931C64.797 88.8606 64.6065 89.1578 64.3318 89.4845C64.0572 89.8088 63.6701 90.1982 63.1706 90.6528L62.1088 91.6933V91.743H65.1628V93.0001H59.9781Z" fill="#676767"/>
<defs>
<clipPath id="clip0_355_128">
<rect width="93" height="115" fill="white"/>
</clipPath>
</defs>
</svg>
